<?xml version="1.0" encoding="utf-8"?>
<!-- Generator: Adobe Illustrator 21.1.0, SVG Export Plug-In . SVG Version: 6.00 Build 0)  -->
<svg version="1.1" id="Layer_1" xmlns="http://www.w3.org/2000/svg" xmlns:xlink="http://www.w3.org/1999/xlink" x="0px" y="0px"
	 viewBox="0 0 511.7 516" style="enable-background:new 0 0 511.7 516;" xml:space="preserve">
<style type="text/css">
	.st0{fill:none;stroke:#9ABB58;stroke-linecap:round;stroke-linejoin:round;stroke-miterlimit:10;}
	.st1{fill:none;stroke:#575756;stroke-width:1.5;stroke-miterlimit:10;}
	.st2{fill:#221E20;}
	.st3{font-family:'Arial';}
	.st4{font-size:16px;}
	.st5{fill:none;stroke:#26231E;stroke-miterlimit:10;}
	.st6{fill:#26231E;}
	.st7{fill:none;stroke:#2B2422;stroke-width:1.0581;stroke-miterlimit:10;}
	.st8{fill:none;stroke:#5180BC;stroke-linecap:round;stroke-linejoin:round;stroke-miterlimit:10;}
	.st9{fill:#7A6958;}
	.st10{fill:#A3897A;}
	.st11{fill:none;stroke:#E20613;stroke-linecap:round;stroke-linejoin:round;stroke-miterlimit:10;}
	.st12{fill:none;stroke:#F29100;stroke-linecap:round;stroke-linejoin:round;stroke-miterlimit:10;}
	.st13{fill:#1D1D1B;}
	.st14{font-size:12px;}
	.st15{fill:none;stroke:#007BA6;stroke-width:1.3;stroke-miterlimit:10;}
	.st16{fill:#007BA6;}
	.st17{fill:#2B2523;}
	.st18{font-size:8px;}
	.st19{fill:none;stroke:#2B2422;stroke-width:0.75;stroke-linecap:round;stroke-linejoin:round;stroke-miterlimit:10;}
	.st20{font-size:6.2771px;}
	.st21{fill:none;stroke:#9ABB58;stroke-linecap:round;stroke-linejoin:round;}
	.st22{fill:none;stroke:#9ABB58;stroke-linecap:round;stroke-linejoin:round;stroke-dasharray:2.8539,1.9026;}
	.st23{filter:url(#Adobe_OpacityMaskFilter);}
	.st24{fill:url(#SVGID_2_);}
	.st25{mask:url(#SVGID_1_);fill:#FFFFFF;}
	.st26{fill:none;stroke:#2B2422;stroke-miterlimit:10;}
	.st27{fill:#2B2422;}
	.st28{filter:url(#Adobe_OpacityMaskFilter_1_);}
	.st29{fill:url(#SVGID_4_);}
	.st30{mask:url(#SVGID_3_);fill:#FFFFFF;}
	.st31{fill:none;stroke:#9ABB58;stroke-linecap:round;stroke-linejoin:round;stroke-miterlimit:10;stroke-dasharray:3,2;}
	.st32{filter:url(#Adobe_OpacityMaskFilter_2_);}
	.st33{fill:url(#SVGID_6_);}
	.st34{mask:url(#SVGID_5_);fill:#FFFFFF;}
	.st35{filter:url(#Adobe_OpacityMaskFilter_3_);}
	.st36{fill:url(#SVGID_8_);}
	.st37{mask:url(#SVGID_7_);fill:#FFFFFF;}
	.st38{filter:url(#Adobe_OpacityMaskFilter_4_);}
	.st39{fill:url(#SVGID_10_);}
	.st40{mask:url(#SVGID_9_);fill:#FFFFFF;}
	.st41{filter:url(#Adobe_OpacityMaskFilter_5_);}
	.st42{fill:url(#SVGID_12_);}
	.st43{mask:url(#SVGID_11_);fill:#FFFFFF;}
</style>
<line class="st0" x1="240.3" y1="416.8" x2="290.3" y2="416.8"/>
<line class="st0" x1="240.3" y1="422.6" x2="290.3" y2="422.6"/>
<path class="st1" d="M509.9,515.3H1.8c-0.6,0-1-0.4-1-1V2.8c0-1.1,0.9-2,2-2h507.2c0.6,0,1,0.4,1,1v512.5
	C510.9,514.8,510.5,515.3,509.9,515.3z"/>
<text transform="matrix(1 0 0 1 283.8445 496.7511)" class="st2 st3 st4">Loading</text>
<g>
	<g>
		<line class="st5" x1="310.4" y1="442.5" x2="310.4" y2="473.2"/>
		<g>
			<path class="st6" d="M310.4,479.3c-1.1-2.8-2.9-6.4-4.8-8.5l4.8,1.7l4.8-1.7C313.2,472.9,311.4,476.4,310.4,479.3z"/>
		</g>
	</g>
</g>
<text transform="matrix(1 0 0 1 126.765 380.1438)"><tspan x="0" y="0" class="st2 st3 st4">Attachment of rapid 1D</tspan><tspan x="15.1" y="19.2" class="st2 st3 st4">sequencing adapters</tspan></text>
<path class="st7" d="M310.3,390.5c0-6.5,5.2-11.7,11.7-11.7"/>
<g>
	<g>
		<line class="st5" x1="310.3" y1="366.2" x2="310.3" y2="396.9"/>
		<g>
			<path class="st6" d="M310.3,403c-1.1-2.8-2.9-6.4-4.8-8.5l4.8,1.7l4.8-1.7C313.2,396.6,311.4,400.1,310.3,403z"/>
		</g>
	</g>
</g>
<polyline class="st8" points="353.1,387.2 357.3,384 388.6,384 "/>
<polyline class="st8" points="327.6,365.1 347.3,378.6 388.6,378.6 "/>
<path class="st9" d="M345.8,374.2c0.1-6.2-4.6-6.4-5.8-5.3c-1.3,1.2-6.5,6.9-3.4,8.4c3,1.5,6.7,1.6,6.4,0.6
	C341.1,372.2,345.8,377.3,345.8,374.2z"/>
<circle class="st10" cx="388.6" cy="378.6" r="2.8"/>
<text transform="matrix(1 0 0 1 152.3635 301.4323)"><tspan x="0" y="0" class="st2 st3 st4">PCR with barcoded</tspan><tspan x="-39.1" y="19.2" class="st2 st3 st4">rapid attachment primers</tspan></text>
<path class="st7" d="M310.1,311.7c0-6.5,5.2-11.7,11.7-11.7"/>
<g>
	<g>
		<line class="st5" x1="310.1" y1="287.5" x2="310.1" y2="318.2"/>
		<g>
			<path class="st6" d="M310.1,324.2c-1.1-2.8-2.9-6.4-4.8-8.5l4.8,1.7l4.8-1.7C313,317.9,311.2,321.4,310.1,324.2z"/>
		</g>
	</g>
</g>
<line class="st11" x1="361.1" y1="299.7" x2="391.7" y2="299.7"/>
<line class="st11" x1="361.1" y1="312.7" x2="391.7" y2="312.7"/>
<line class="st12" x1="330.5" y1="299.7" x2="361.1" y2="299.7"/>
<line class="st12" x1="330.5" y1="312.7" x2="361.1" y2="312.7"/>
<circle class="st10" cx="330.5" cy="299.7" r="2.8"/>
<circle class="st10" cx="330.5" cy="312.7" r="2.8"/>
<text transform="matrix(1 0 0 1 395.959 303.2463)" class="st13 st3 st14">F</text>
<text transform="matrix(1 0 0 1 395.9592 316.2464)" class="st13 st3 st14">R</text>
<g>
	<g>
		<line class="st15" x1="15.3" y1="46.4" x2="15.3" y2="260.7"/>
		<g>
			<path class="st16" d="M15.3,268.5c-1.4-3.7-3.7-8.3-6.2-11.1l6.2,2.2l6.2-2.2C19,260.2,16.6,264.8,15.3,268.5z"/>
		</g>
	</g>
</g>
<g>
	<text transform="matrix(1.001 0 0 1 23.7572 162.5844)" class="st16 st3 st4">50 min</text>
</g>
<g>
	<g>
		<line class="st15" x1="15.3" y1="281.6" x2="15.3" y2="340.5"/>
		<g>
			<path class="st16" d="M15.3,348.3c-1.4-3.7-3.7-8.3-6.2-11.1l6.2,2.2l6.2-2.2C19,340,16.6,344.6,15.3,348.3z"/>
		</g>
	</g>
</g>
<g>
	<g>
		<line class="st15" x1="15.3" y1="363.8" x2="15.3" y2="492.3"/>
		<g>
			<path class="st16" d="M15.3,500.2c-1.4-3.7-3.7-8.3-6.2-11.1l6.2,2.2l6.2-2.2C19,491.9,16.6,496.5,15.3,500.2z"/>
		</g>
	</g>
</g>
<g>
	<text transform="matrix(1.001 0 0 1 23.7566 437.1367)" class="st16 st3 st4">10 min</text>
</g>
<polyline class="st11" points="327.6,213.8 334.5,219.2 348.6,219.2 "/>
<text transform="matrix(1 0 0 1 197.7132 229.3111)"><tspan x="0" y="0" class="st2 st3 st4">PCR adapter</tspan><tspan x="41.8" y="19.2" class="st2 st3 st4">ligation</tspan></text>
<polyline class="st11" points="327.6,231.5 334.5,226.1 348.6,226.1 "/>
<text transform="matrix(1 0 0 1 350.9689 221.7177)" class="st17 st3 st18">T</text>
<path class="st7" d="M310.4,236c0-6.5,5.2-11.7,11.7-11.7"/>
<g>
	<g>
		<line class="st5" x1="310.4" y1="215.4" x2="310.4" y2="246.1"/>
		<g>
			<path class="st6" d="M310.4,252.1c-1.1-2.8-2.9-6.4-4.8-8.5l4.8,1.7l4.8-1.7C313.2,245.8,311.4,249.3,310.4,252.1z"/>
		</g>
	</g>
</g>
<line class="st19" x1="376.7" y1="199.7" x2="381.3" y2="202.2"/>
<circle class="st19" cx="384.7" cy="203.9" r="3.2"/>
<text transform="matrix(1 0 0 1 382.8758 205.6952)" class="st17 st3 st20">p</text>
<text transform="matrix(1 0 0 1 378.7367 197.0497)" class="st17 st3 st18">A</text>
<text transform="matrix(1 0 0 1 239.0386 209.7606)" class="st17 st3 st18">A</text>
<line class="st19" x1="246.5" y1="203.1" x2="241.9" y2="200.6"/>
<circle class="st19" cx="238.8" cy="198.9" r="3.2"/>
<text transform="matrix(1 0 0 1 236.9781 200.7205)" class="st17 st3 st20">p</text>
<path class="st0" d="M334.8,206.5c14,0.3,34.3-5.5,41.9-7"/>
<path class="st0" d="M246.5,207.2c15.9-4.7,31.8-9.4,46.5-9.5"/>
<g>
	<g>
		<path class="st21" d="M293,193.7c0.5,0,1,0,1.5,0"/>
		<path class="st22" d="M296.4,193.8c12.5,1,24,7.5,36,8.5"/>
		<path class="st21" d="M333.3,202.4c0.5,0,1,0.1,1.5,0.1"/>
	</g>
</g>
<g>
	<g>
		<path class="st21" d="M293,197.7c0.5,0,1,0,1.5,0"/>
		<path class="st22" d="M296.4,197.8c12.5,1,24,7.5,36,8.5"/>
		<path class="st21" d="M333.3,206.4c0.5,0,1,0.1,1.5,0.1"/>
	</g>
</g>
<path class="st0" d="M334.8,202.4c14,0.3,34.3-5.5,41.9-7"/>
<path class="st0" d="M246.5,203.2c15.9-4.7,31.8-9.4,46.5-9.5"/>
<defs>
	<filter id="Adobe_OpacityMaskFilter" filterUnits="userSpaceOnUse" x="286.5" y="184.2" width="52.8" height="28.4">
		<feColorMatrix  type="matrix" values="1 0 0 0 0  0 1 0 0 0  0 0 1 0 0  0 0 0 1 0"/>
	</filter>
</defs>
<mask maskUnits="userSpaceOnUse" x="286.5" y="184.2" width="52.8" height="28.4" id="SVGID_1_">
	<g class="st23">
		<linearGradient id="SVGID_2_" gradientUnits="userSpaceOnUse" x1="286.5323" y1="198.412" x2="339.2945" y2="198.412">
			<stop  offset="0" style="stop-color:#1D1D1B"/>
			<stop  offset="0.45" style="stop-color:#F5F5F5"/>
			<stop  offset="0.55" style="stop-color:#F5F5F5"/>
			<stop  offset="1" style="stop-color:#1D1D1B"/>
		</linearGradient>
		<rect x="286.5" y="184.2" class="st24" width="52.8" height="28.4"/>
	</g>
</mask>
<rect x="286.5" y="184.2" class="st25" width="52.8" height="28.4"/>
<g>
	<g>
		<line class="st26" x1="308.8" y1="142.8" x2="308.8" y2="173.5"/>
		<g>
			<path class="st27" d="M308.8,179.6c-1.1-2.8-2.9-6.4-4.8-8.5l4.8,1.7l4.8-1.7C311.6,173.2,309.8,176.7,308.8,179.6z"/>
		</g>
	</g>
</g>
<text transform="matrix(1 0 0 1 208.0105 31.7547)" class="st2 st3 st4">High molecular weight gDNA</text>
<g>
	<g>
		<line class="st26" x1="308.8" y1="65.3" x2="308.8" y2="96"/>
		<g>
			<path class="st27" d="M308.8,102c-1.1-2.8-2.9-6.4-4.8-8.5l4.8,1.7l4.8-1.7C311.6,95.7,309.8,99.2,308.8,102z"/>
		</g>
	</g>
</g>
<text transform="matrix(1 0 0 1 230.8677 79.223)"><tspan x="0" y="0" class="st2 st3 st4">Optional</tspan><tspan x="-38.2" y="19.2" class="st2 st3 st4">fragmentation</tspan></text>
<text transform="matrix(1 0 0 1 228.1258 166.3336)" class="st2 st3 st4">End-prep</text>
<path class="st0" d="M331.4,130.5c14,0.3,34.3-5.5,41.9-7"/>
<path class="st0" d="M243,131.2c15.9-4.7,31.8-9.4,46.5-9.5"/>
<g>
	<g>
		<path class="st21" d="M289.5,117.7c0.5,0,1,0,1.5,0"/>
		<path class="st22" d="M292.9,117.8c12.5,1,24,7.5,36,8.5"/>
		<path class="st21" d="M329.9,126.4c0.5,0,1,0.1,1.5,0.1"/>
	</g>
</g>
<g>
	<g>
		<path class="st21" d="M289.5,121.7c0.5,0,1,0,1.5,0"/>
		<path class="st22" d="M292.9,121.9c12.5,1,24,7.5,36,8.5"/>
		<path class="st21" d="M329.9,130.4c0.5,0,1,0.1,1.5,0.1"/>
	</g>
</g>
<path class="st0" d="M331.4,126.4c14,0.3,34.3-5.5,41.9-7"/>
<path class="st0" d="M243,127.2c15.9-4.7,31.8-9.4,46.5-9.5"/>
<defs>
	<filter id="Adobe_OpacityMaskFilter_1_" filterUnits="userSpaceOnUse" x="283.1" y="108.2" width="52.8" height="28.4">
		<feColorMatrix  type="matrix" values="1 0 0 0 0  0 1 0 0 0  0 0 1 0 0  0 0 0 1 0"/>
	</filter>
</defs>
<mask maskUnits="userSpaceOnUse" x="283.1" y="108.2" width="52.8" height="28.4" id="SVGID_3_">
	<g class="st28">
		<linearGradient id="SVGID_4_" gradientUnits="userSpaceOnUse" x1="283.0898" y1="122.4339" x2="335.8521" y2="122.4339">
			<stop  offset="0" style="stop-color:#1D1D1B"/>
			<stop  offset="0.45" style="stop-color:#F5F5F5"/>
			<stop  offset="0.55" style="stop-color:#F5F5F5"/>
			<stop  offset="1" style="stop-color:#1D1D1B"/>
		</linearGradient>
		<rect x="283.1" y="108.2" class="st29" width="52.8" height="28.4"/>
	</g>
</mask>
<rect x="283.1" y="108.2" class="st30" width="52.8" height="28.4"/>
<path class="st0" d="M336.2,40.5c8.5,0.5,15.6,9.7,23.6,10.6c8.1,0.9,20.2-4,24.7-5.1"/>
<path class="st0" d="M233,52c9.4-4.2,18.9-8.5,27.4-8.2c8.5,0.3,15.8,9.2,23.8,9.9"/>
<path class="st0" d="M336.2,44.6c8.5,0.5,15.6,9.7,23.6,10.6c8.1,0.9,20.2-4,24.7-5.1"/>
<path class="st0" d="M234.1,55.6c9.4-4.2,18.9-8.5,27.4-8.2c8.5,0.3,15.8,9.2,23.8,9.9"/>
<path class="st31" d="M284.3,53.8c8.1,0.7,19.8-4.2,24.3-5.8c9.7-3.9,19-7.9,27.6-7.4"/>
<path class="st31" d="M285.4,57.4c8.1,0.7,20-4.4,24.3-5.9c9.7-3.9,17.9-7.5,26.5-6.9"/>
<defs>
	<filter id="Adobe_OpacityMaskFilter_2_" filterUnits="userSpaceOnUse" x="283.1" y="34.9" width="52.8" height="28.4">
		<feColorMatrix  type="matrix" values="1 0 0 0 0  0 1 0 0 0  0 0 1 0 0  0 0 0 1 0"/>
	</filter>
</defs>
<mask maskUnits="userSpaceOnUse" x="283.1" y="34.9" width="52.8" height="28.4" id="SVGID_5_">
	<g class="st32">
		<linearGradient id="SVGID_6_" gradientUnits="userSpaceOnUse" x1="283.0949" y1="49.0856" x2="335.8571" y2="49.0856">
			<stop  offset="0" style="stop-color:#1D1D1B"/>
			<stop  offset="0.45" style="stop-color:#F5F5F5"/>
			<stop  offset="0.55" style="stop-color:#F5F5F5"/>
			<stop  offset="1" style="stop-color:#1D1D1B"/>
		</linearGradient>
		<rect x="283.1" y="34.9" class="st33" width="52.8" height="28.4"/>
	</g>
</mask>
<rect x="283.1" y="34.9" class="st34" width="52.8" height="28.4"/>
<line class="st11" x1="209.7" y1="341.2" x2="240.3" y2="341.2"/>
<line class="st11" x1="240.3" y1="347" x2="209.7" y2="347"/>
<line class="st12" x1="179" y1="341.2" x2="209.7" y2="341.2"/>
<line class="st12" x1="179" y1="347" x2="209.6" y2="347"/>
<circle class="st10" cx="179" cy="341.2" r="2.8"/>
<line class="st0" x1="329.9" y1="341.2" x2="379.9" y2="341.2"/>
<line class="st0" x1="329.9" y1="347" x2="379.9" y2="347"/>
<line class="st0" x1="240.3" y1="341.2" x2="290.3" y2="341.2"/>
<line class="st0" x1="240.3" y1="347" x2="290.3" y2="347"/>
<line class="st31" x1="290.5" y1="341.2" x2="329" y2="341.2"/>
<line class="st31" x1="290.3" y1="347" x2="329" y2="347"/>
<line class="st11" x1="410.5" y1="347" x2="379.9" y2="347"/>
<line class="st11" x1="379.9" y1="341.2" x2="410.5" y2="341.2"/>
<line class="st12" x1="441.1" y1="347" x2="410.5" y2="347"/>
<line class="st12" x1="441.1" y1="341.2" x2="410.5" y2="341.2"/>
<circle class="st10" cx="441.1" cy="347" r="2.8"/>
<defs>
	<filter id="Adobe_OpacityMaskFilter_3_" filterUnits="userSpaceOnUse" x="283.7" y="339.4" width="52.8" height="8.5">
		<feColorMatrix  type="matrix" values="1 0 0 0 0  0 1 0 0 0  0 0 1 0 0  0 0 0 1 0"/>
	</filter>
</defs>
<mask maskUnits="userSpaceOnUse" x="283.7" y="339.4" width="52.8" height="8.5" id="SVGID_7_">
	<g class="st35">
		<linearGradient id="SVGID_8_" gradientUnits="userSpaceOnUse" x1="283.7358" y1="343.6922" x2="336.4981" y2="343.6922">
			<stop  offset="0" style="stop-color:#1D1D1B"/>
			<stop  offset="0.45" style="stop-color:#F5F5F5"/>
			<stop  offset="0.55" style="stop-color:#F5F5F5"/>
			<stop  offset="1" style="stop-color:#1D1D1B"/>
		</linearGradient>
		<rect x="283.7" y="339.4" class="st36" width="52.8" height="8.5"/>
	</g>
</mask>
<rect x="283.7" y="339.4" class="st37" width="52.8" height="8.5"/>
<g>
	<line class="st0" x1="330.2" y1="267.5" x2="380.2" y2="267.5"/>
	<line class="st0" x1="330.2" y1="272.7" x2="380.2" y2="272.7"/>
	<line class="st0" x1="240.6" y1="267.5" x2="290.6" y2="267.5"/>
	<line class="st0" x1="240.6" y1="272.7" x2="290.6" y2="272.7"/>
	<line class="st31" x1="290.8" y1="267.5" x2="329.3" y2="267.5"/>
	<line class="st31" x1="290.6" y1="272.7" x2="329.3" y2="272.7"/>
	<polyline class="st11" points="392.5,276 388.3,272.7 379.8,272.7 	"/>
	<polyline class="st11" points="392.5,264.3 388.3,267.5 379.8,267.5 	"/>
	<polyline class="st11" points="227.8,276 232,272.7 240.4,272.7 	"/>
	<polyline class="st11" points="227.8,264.3 232,267.5 240.4,267.5 	"/>
</g>
<defs>
	<filter id="Adobe_OpacityMaskFilter_4_" filterUnits="userSpaceOnUse" x="283.7" y="265.9" width="52.8" height="8.5">
		<feColorMatrix  type="matrix" values="1 0 0 0 0  0 1 0 0 0  0 0 1 0 0  0 0 0 1 0"/>
	</filter>
</defs>
<mask maskUnits="userSpaceOnUse" x="283.7" y="265.9" width="52.8" height="8.5" id="SVGID_9_">
	<g class="st38">
		<linearGradient id="SVGID_10_" gradientUnits="userSpaceOnUse" x1="283.7358" y1="270.1374" x2="336.4981" y2="270.1374">
			<stop  offset="0" style="stop-color:#1D1D1B"/>
			<stop  offset="0.45" style="stop-color:#F5F5F5"/>
			<stop  offset="0.55" style="stop-color:#F5F5F5"/>
			<stop  offset="1" style="stop-color:#1D1D1B"/>
		</linearGradient>
		<rect x="283.7" y="265.9" class="st39" width="52.8" height="8.5"/>
	</g>
</mask>
<rect x="283.7" y="265.9" class="st40" width="52.8" height="8.5"/>
<line class="st11" x1="209.7" y1="416.8" x2="240.3" y2="416.8"/>
<line class="st11" x1="240.3" y1="422.6" x2="209.7" y2="422.6"/>
<line class="st12" x1="179" y1="416.8" x2="209.7" y2="416.8"/>
<line class="st12" x1="179" y1="422.6" x2="209.6" y2="422.6"/>
<line class="st0" x1="329.9" y1="416.8" x2="379.9" y2="416.8"/>
<line class="st0" x1="329.9" y1="422.6" x2="379.9" y2="422.6"/>
<line class="st31" x1="290.5" y1="416.8" x2="329" y2="416.8"/>
<line class="st31" x1="290.3" y1="422.6" x2="329" y2="422.6"/>
<line class="st11" x1="410.5" y1="422.6" x2="379.9" y2="422.6"/>
<line class="st11" x1="379.9" y1="416.8" x2="410.5" y2="416.8"/>
<line class="st12" x1="441.1" y1="422.6" x2="410.5" y2="422.6"/>
<line class="st12" x1="441.1" y1="416.8" x2="410.5" y2="416.8"/>
<defs>
	<filter id="Adobe_OpacityMaskFilter_5_" filterUnits="userSpaceOnUse" x="283.7" y="415.5" width="52.8" height="8.5">
		<feColorMatrix  type="matrix" values="1 0 0 0 0  0 1 0 0 0  0 0 1 0 0  0 0 0 1 0"/>
	</filter>
</defs>
<mask maskUnits="userSpaceOnUse" x="283.7" y="415.5" width="52.8" height="8.5" id="SVGID_11_">
	<g class="st41">
		<linearGradient id="SVGID_12_" gradientUnits="userSpaceOnUse" x1="283.7358" y1="419.6955" x2="336.4981" y2="419.6955">
			<stop  offset="0" style="stop-color:#1D1D1B"/>
			<stop  offset="0.45" style="stop-color:#F5F5F5"/>
			<stop  offset="0.55" style="stop-color:#F5F5F5"/>
			<stop  offset="1" style="stop-color:#1D1D1B"/>
		</linearGradient>
		<rect x="283.7" y="415.5" class="st42" width="52.8" height="8.5"/>
	</g>
</mask>
<rect x="283.7" y="415.5" class="st43" width="52.8" height="8.5"/>
<polyline class="st8" points="143.5,425.9 147.7,422.6 179,422.6 "/>
<polyline class="st8" points="118,403.3 137.7,416.8 179,416.8 "/>
<path class="st9" d="M136.2,412.5c0.1-6.2-4.6-6.4-5.8-5.3c-1.3,1.2-6.5,6.9-3.4,8.4c3,1.5,6.7,1.6,6.4,0.6
	C131.5,410.4,136.2,415.6,136.2,412.5z"/>
<polyline class="st8" points="476.7,413.5 472.5,416.8 441.1,416.8 "/>
<polyline class="st8" points="502.2,436.1 482.4,422.6 441.1,422.6 "/>
<path class="st9" d="M483.9,427c-0.1,6.2,4.6,6.4,5.8,5.3c1.3-1.2,6.5-6.9,3.4-8.4c-3-1.5-6.7-1.6-6.4-0.6
	C488.7,429,484,423.9,483.9,427z"/>
<text transform="matrix(1 0 0 1 23.7566 310.6296)"><tspan x="0" y="0" class="st16 st3 st4">User-</tspan><tspan x="0" y="19.2" class="st16 st3 st4">defined</tspan></text>
</svg>
